<svg width="50" height="50" viewBox="0 0 50 50" fill="none" xmlns="http://www.w3.org/2000/svg">
<rect width="50" height="50" rx="10" fill="#8D8CB2"/>
<path d="M25.1562 14.9375C22.6354 14.9375 20.4792 15.7708 18.6875 17.4375C16.75 19.25 15.7812 21.6354 15.7812 24.5938C15.7812 27.8438 16.9167 30.3958 19.1875 32.25C20.8958 33.625 22.8542 34.3125 25.0625 34.3125C25.875 34.3125 26.7188 34.1979 27.5938 33.9688C28.5521 35.5938 29.25 36.6354 29.6875 37.0938C30.5 37.9271 31.3646 38.3542 32.2812 38.375C33.9688 38.3333 35.3438 37.125 36.4062 34.75L35.75 34.375C34.6458 35.6667 33.6146 36.3229 32.6562 36.3438C31.8021 36.3438 30.8438 35.6875 29.7812 34.375C29.6354 34.1875 29.3958 33.875 29.0625 33.4375C31.3958 32.3542 32.9792 30.5729 33.8125 28.0938C34.1875 26.9896 34.375 25.8021 34.375 24.5312C34.375 21.1979 33.2083 18.6354 30.875 16.8438C29.2083 15.5729 27.3021 14.9375 25.1562 14.9375ZM24.6875 30.2812C23.5 30.3021 22.4479 30.9688 21.5312 32.2812C19.7812 30.8646 18.9062 28.3021 18.9062 24.5938C18.9062 19.5729 20.4688 16.6979 23.5938 15.9688C24.0938 15.8646 24.6042 15.8125 25.125 15.8125C28.4792 15.8125 30.4583 17.7812 31.0625 21.7188C31.1875 22.5729 31.25 23.4896 31.25 24.4688C31.2292 28.4688 30.25 31.1458 28.3125 32.5C27.0833 31.0417 25.875 30.3021 24.6875 30.2812ZM25.0625 33.4375C24 33.4375 23.0625 33.2188 22.25 32.7812C23.0417 31.8646 23.8229 31.3958 24.5938 31.375C25.4271 31.3958 26.2396 31.9792 27.0312 33.125C26.4479 33.3333 25.7917 33.4375 25.0625 33.4375Z" fill="#595681"/>
</svg>
